<svg width="31" height="28" viewBox="0 0 31 28" fill="none" xmlns="http://www.w3.org/2000/svg">
<g clip-path="url(#clip0)">
<path d="M4.42065 14.7492V14.1406H4.74727L4.82192 14.4525C4.82693 14.475 4.83347 14.4902 4.84156 14.498C4.84965 14.5059 4.86491 14.5138 4.88726 14.5216C5.01916 14.5554 5.14551 14.5722 5.26618 14.5722C5.26994 14.5722 5.27365 14.5722 5.27741 14.5722C5.65695 14.5722 5.84672 14.4424 5.84672 14.1827C5.84672 14.1165 5.8327 14.0588 5.80472 14.0099C5.77669 13.9611 5.73284 13.9206 5.67313 13.8886C5.61341 13.8565 5.5574 13.8312 5.5051 13.8127C5.45285 13.7941 5.38067 13.7736 5.28859 13.7511C5.03849 13.6849 4.86799 13.6247 4.77715 13.5707C4.58053 13.4538 4.48222 13.2734 4.48222 13.0295C4.48222 12.7879 4.57337 12.6055 4.75566 12.4825C4.93802 12.3594 5.17595 12.2979 5.46965 12.2979C5.72228 12.2979 5.96806 12.34 6.20698 12.4243V13.0464L5.87846 13.0194L5.8243 12.7329C5.81683 12.698 5.80441 12.6761 5.787 12.6671C5.71852 12.63 5.60594 12.6114 5.44915 12.6114C5.27865 12.6114 5.14891 12.6432 5.05992 12.7067C4.971 12.7702 4.92647 12.8581 4.92647 12.9705C4.92647 13.0211 4.93802 13.0672 4.96099 13.1088C4.98403 13.1504 5.00953 13.1838 5.03757 13.2091C5.06554 13.2344 5.10877 13.2597 5.16725 13.285C5.22573 13.3103 5.27519 13.3291 5.31564 13.3414C5.35609 13.3538 5.41488 13.3707 5.49207 13.392C5.59408 13.4201 5.67128 13.4426 5.72352 13.4595C5.77576 13.4763 5.84455 13.5055 5.92977 13.5471C6.01499 13.5888 6.0794 13.6325 6.12294 13.6787C6.16653 13.7247 6.20538 13.7868 6.23965 13.865C6.27386 13.943 6.29097 14.0316 6.29097 14.1305C6.29097 14.3879 6.19482 14.5778 6.00258 14.7003C5.81028 14.8229 5.56111 14.8841 5.255 14.8841C5.0945 14.8841 4.93425 14.8698 4.77438 14.8411C4.61443 14.8124 4.49655 14.7818 4.42065 14.7492V14.7492Z" fill="#141414"/>
<path d="M6.47876 13.2809L6.51427 13.0566H7.17502V14.2098C7.17502 14.3346 7.19244 14.4251 7.22727 14.4813C7.26216 14.5375 7.32996 14.5656 7.43074 14.5656C7.61119 14.5656 7.78848 14.4852 7.96275 14.3245V13.3989C7.96275 13.3708 7.9596 13.3523 7.95336 13.3433C7.94718 13.3342 7.92977 13.3275 7.90112 13.323L7.7182 13.2809L7.7518 13.0566H8.40323V14.5285C8.40323 14.5701 8.41941 14.5931 8.45177 14.5976L8.65148 14.6212V14.8421H8.04673L8.01314 14.6313L8.0019 14.6279C7.76551 14.7988 7.5272 14.8842 7.28704 14.8842C7.08542 14.8842 6.94327 14.8375 6.86052 14.7443C6.77777 14.651 6.73639 14.5015 6.73639 14.2958V13.3989C6.73639 13.3708 6.73294 13.3523 6.72608 13.3433C6.71929 13.3342 6.70218 13.3275 6.67476 13.323L6.47876 13.2809V13.2809Z" fill="#141414"/>
<path d="M8.65967 12.4571L8.69703 12.2363H9.36341V13.2091C9.57991 13.0855 9.78833 13.0236 9.98872 13.0236C9.98995 13.0236 9.9918 13.0236 9.99427 13.0236C10.2183 13.0236 10.3959 13.0945 10.5272 13.2361C10.6585 13.3777 10.7241 13.5969 10.7241 13.8936C10.7241 14.2341 10.6519 14.4845 10.5076 14.6447C10.3632 14.8049 10.1642 14.8849 9.91029 14.8849C9.68131 14.8849 9.49093 14.817 9.33914 14.6809H9.32419L9.30178 14.8428H8.87809C8.91045 14.6776 8.92663 14.5174 8.92663 14.3623C8.92663 14.3567 8.92663 14.3511 8.92663 14.3454V12.5954C8.92663 12.5561 8.91045 12.5319 8.87809 12.5229L8.65967 12.4571V12.4571ZM9.36711 14.3657C9.52267 14.4972 9.68069 14.5629 9.84125 14.5629C10.1262 14.5629 10.2687 14.3477 10.2687 13.9172C10.2687 13.7329 10.2335 13.5918 10.1632 13.494C10.0929 13.3963 9.99427 13.3473 9.86737 13.3473C9.71182 13.3473 9.54508 13.4041 9.36711 13.5176V14.3657Z" fill="#141414"/>
<path d="M10.8989 14.8428V14.6253L11.1173 14.5983C11.1422 14.5961 11.1587 14.5902 11.1668 14.5806C11.1749 14.5711 11.1789 14.5539 11.1789 14.5292V12.5954C11.1789 12.5561 11.1621 12.5319 11.1285 12.5229L10.9101 12.4571L10.9493 12.2363H11.6175V14.5292C11.6175 14.5573 11.621 14.5753 11.6279 14.5831C11.6347 14.591 11.6518 14.5961 11.6792 14.5983L11.8938 14.6219V14.8428H10.8989V14.8428Z" fill="#141414"/>
<path d="M12.1101 14.8424V14.6249L12.3397 14.5979C12.3646 14.5957 12.3811 14.5898 12.3892 14.5802C12.3973 14.5707 12.4013 14.5535 12.4013 14.5288V13.4161C12.4013 13.3767 12.3845 13.3526 12.3509 13.3436L12.14 13.2779L12.1792 13.057H12.84V14.5288C12.84 14.5569 12.8434 14.5749 12.8502 14.5828C12.8571 14.5906 12.8742 14.5957 12.9015 14.5979L13.1274 14.6215V14.8424H12.1101V14.8424ZM12.2855 12.4602C12.2855 12.3792 12.3104 12.3169 12.3603 12.273C12.41 12.2292 12.4809 12.2073 12.573 12.2073C12.6626 12.2073 12.7329 12.2292 12.784 12.273C12.835 12.3169 12.8605 12.3792 12.8605 12.4602C12.8605 12.5433 12.835 12.6071 12.784 12.6515C12.7329 12.6959 12.6626 12.7181 12.573 12.7181C12.4809 12.7181 12.41 12.6959 12.3603 12.6515C12.3104 12.6071 12.2855 12.5433 12.2855 12.4602V12.4602Z" fill="#141414"/>
<path d="M13.3208 13.2771L13.36 13.0562H13.9255L13.9554 13.2501L13.9722 13.2535C14.1962 13.0995 14.414 13.0225 14.6255 13.0225C14.842 13.0225 14.9939 13.0916 15.0809 13.2298C15.3174 13.0916 15.5389 13.0225 15.7455 13.0225C15.9471 13.0225 16.0911 13.0731 16.1776 13.1742C16.2641 13.2754 16.3073 13.4215 16.3073 13.6126V14.528C16.3073 14.5562 16.3104 14.5741 16.3167 14.582C16.3229 14.5898 16.3403 14.5949 16.3689 14.5972L16.578 14.6207V14.8416H15.6073V14.6242L15.8071 14.6006C15.8482 14.596 15.868 14.573 15.8668 14.5314V13.7188C15.8668 13.6019 15.8509 13.5122 15.8192 13.4499C15.7875 13.3875 15.7231 13.3563 15.626 13.3563C15.4705 13.3563 15.3143 13.4024 15.1575 13.4946C15.1675 13.5474 15.1725 13.612 15.1725 13.6884V14.528C15.1725 14.5562 15.1756 14.5741 15.1818 14.582C15.188 14.5898 15.2048 14.5949 15.2322 14.5972L15.4095 14.6207V14.8416H14.4687V14.6242L14.6704 14.6006C14.6952 14.5983 14.7117 14.5919 14.7198 14.5811C14.7279 14.5705 14.7319 14.5539 14.7319 14.5314V13.7374C14.7319 13.6755 14.7301 13.6261 14.7263 13.589C14.7226 13.5519 14.7139 13.5131 14.7002 13.4726C14.6865 13.4322 14.6623 13.4021 14.6274 13.3824C14.5925 13.3628 14.5484 13.3529 14.4948 13.3529C14.3443 13.3529 14.1863 13.412 14.0208 13.53V14.528C14.0208 14.5562 14.0242 14.5741 14.031 14.582C14.0379 14.5898 14.055 14.5949 14.0823 14.5972L14.269 14.6207V14.8416H13.3376V14.6242L13.5205 14.5972C13.5454 14.5949 13.5619 14.589 13.57 14.5795C13.5781 14.5699 13.5821 14.5528 13.5821 14.528V13.4153C13.5821 13.376 13.5653 13.3518 13.5317 13.3428L13.3208 13.2771V13.2771Z" fill="#141414"/>
<path d="M16.7119 13.9397C16.7119 13.6407 16.7959 13.4131 16.9639 13.2568C17.1319 13.1006 17.3484 13.0225 17.6134 13.0225C18.1535 13.0225 18.4236 13.2996 18.4236 13.8536C18.4236 13.9222 18.4198 13.9891 18.4123 14.0543H17.1786C17.1885 14.2229 17.2342 14.3502 17.3157 14.4362C17.3972 14.5221 17.527 14.5651 17.7049 14.5651C17.8655 14.5651 18.0528 14.5246 18.2668 14.4438L18.39 14.7203C18.156 14.8281 17.9115 14.8827 17.6564 14.8838C17.0267 14.8827 16.7119 14.5679 16.7119 13.9397V13.9397ZM17.1823 13.7677H17.9849C17.9849 13.471 17.8586 13.3226 17.606 13.3226C17.489 13.3226 17.3916 13.3594 17.3139 13.433C17.2361 13.5067 17.1922 13.6182 17.1823 13.7677Z" fill="#141414"/>
<path d="M19.9802 12.9779V12.3423H22.3396V12.9779H22.0223L21.9606 12.6778C21.9557 12.652 21.9351 12.639 21.8991 12.639H21.3839V14.5256C21.3839 14.5514 21.387 14.568 21.3932 14.5753C21.3994 14.5826 21.4168 14.5874 21.4455 14.5896L21.8655 14.6183V14.8425H20.4804V14.6183L20.8743 14.5947C20.8992 14.5924 20.9157 14.5871 20.9237 14.5787C20.9318 14.5702 20.9359 14.5526 20.9359 14.5256V12.639H20.4245C20.3884 12.639 20.3678 12.652 20.3628 12.6778L20.3013 12.9779H19.9802V12.9779Z" fill="#141414"/>
<path d="M22.281 13.9414C22.281 13.6424 22.365 13.4148 22.533 13.2585C22.701 13.1023 22.9176 13.0242 23.1826 13.0242C23.7226 13.0242 23.9927 13.3013 23.9927 13.8554C23.9927 13.9239 23.989 13.9908 23.9815 14.056H22.7477C22.7576 14.2246 22.8034 14.3519 22.8849 14.4379C22.9663 14.5238 23.0961 14.5668 23.2741 14.5668C23.4345 14.5668 23.6218 14.5264 23.8359 14.4455L23.9591 14.722C23.7252 14.8298 23.4806 14.8844 23.2255 14.8855C22.5958 14.8844 22.281 14.5696 22.281 13.9414V13.9414ZM22.7514 13.7694H23.554C23.554 13.4727 23.4277 13.3243 23.1751 13.3243C23.0582 13.3243 22.9608 13.3611 22.883 13.4347C22.8052 13.5084 22.7614 13.6199 22.7514 13.7694Z" fill="#141414"/>
<path d="M24.219 14.8421V14.6246L24.3944 14.5942C24.438 14.5875 24.4759 14.5667 24.5083 14.5318L25.0328 13.9654L24.5083 13.3786C24.4797 13.3483 24.4492 13.3287 24.4168 13.3196L24.2563 13.2809L24.2955 13.0566H25.1784V13.2809L24.9637 13.3095L25.3184 13.7192L25.7048 13.3095L25.4715 13.2809L25.5107 13.0566H26.2946V13.2809L26.1266 13.3163C26.0905 13.3275 26.0557 13.3494 26.0221 13.382L25.5293 13.9063L26.08 14.5285C26.116 14.5656 26.1503 14.5858 26.1826 14.5892L26.3749 14.6212V14.8421H25.3949V14.6212L25.6096 14.5892L25.2381 14.1508L24.8443 14.5892L25.0776 14.6212V14.8421H24.219V14.8421Z" fill="#141414"/>
<path d="M26.52 13.295V13.0505C26.6631 13.0348 26.7701 12.9842 26.8411 12.8988C26.912 12.8133 26.9605 12.7349 26.9866 12.573H27.2648V13.0231C27.2648 13.0457 27.2753 13.0569 27.2965 13.0569H27.8509V13.3401H27.2648V14.2792C27.2648 14.3871 27.2847 14.4629 27.3245 14.5068C27.3643 14.5506 27.4365 14.5725 27.541 14.5725C27.6381 14.5725 27.7488 14.5529 27.8733 14.5135L27.961 14.763C27.7669 14.844 27.5783 14.8845 27.3954 14.8845C27.1963 14.8845 27.0517 14.844 26.9614 14.763C26.8712 14.6822 26.8261 14.5557 26.8261 14.3837V13.3755C26.8261 13.353 26.813 13.3466 26.7948 13.3363C26.7323 13.3009 26.52 13.295 26.52 13.295V13.295Z" fill="#141414"/>
<path fill-rule="evenodd" clip-rule="evenodd" d="M2.2228 13.6965C2.2228 13.6659 2.19779 13.6483 2.1671 13.657L0.0557012 14.2618C0.0249482 14.2706 0 14.3025 0 14.333V14.9511C0 14.9817 0.0249482 14.9994 0.0557012 14.9905L2.1671 14.3859C2.19779 14.3771 2.2228 14.3451 2.2228 14.3145V13.6965V13.6965Z" fill="url(#paint0_linear)"/>
<path fill-rule="evenodd" clip-rule="evenodd" d="M0 13.677C0 13.7076 0.0249482 13.7396 0.0557012 13.7484L2.16741 14.3532C2.19816 14.362 2.22311 14.3443 2.22311 14.3138V13.6957C2.22311 13.6652 2.19816 13.6332 2.16741 13.6244L0.0557012 13.0196C0.0249482 13.0108 0 13.0284 0 13.059V13.677H0Z" fill="#FF9800"/>
<path fill-rule="evenodd" clip-rule="evenodd" d="M2.2228 12.4267C2.2228 12.3961 2.19779 12.3785 2.1671 12.3873L0.0557012 12.992C0.0249482 13.0008 0 13.0327 0 13.0633V13.6814C0 13.7119 0.0249482 13.7295 0.0557012 13.7208L2.1671 13.1161C2.19779 13.1072 2.2228 13.0753 2.2228 13.0448V12.4267V12.4267Z" fill="#FF9800"/>
</g>
<defs>
<linearGradient id="paint0_linear" x1="1.22514" y1="14.5853" x2="1.43475" y2="14.0175" gradientUnits="userSpaceOnUse">
<stop stop-color="#FF9700"/>
<stop offset="0.53" stop-color="#F48E00"/>
<stop offset="1" stop-color="#D06F00"/>
</linearGradient>
<clipPath id="clip0">
<rect width="31" height="28" fill="white"/>
</clipPath>
</defs>
</svg>
