<svg width="215" height="191" viewBox="0 0 215 191" fill="none" xmlns="http://www.w3.org/2000/svg">
<g style="mix-blend-mode:darken">
<rect x="6.5" y="0.5" width="208" height="190" rx="15.5" fill="#EEEEEE"/>
<rect x="6" width="209" height="98.5" rx="16" fill="white"/>
<g filter="url(#filter0_d)">
<path d="M13.0952 45.3242H17.8877C18.7975 45.3242 19.4958 45.1232 19.9824 44.7212C20.4902 44.298 20.8605 43.8325 21.0933 43.3247C21.3472 42.7323 21.4953 42.0552 21.5376 41.2935V30.0898C21.5376 28.7992 21.7809 27.6037 22.2676 26.5034C22.7542 25.382 23.4102 24.4193 24.2354 23.6152C25.0817 22.79 26.055 22.1553 27.1553 21.7109C28.2767 21.2454 29.4616 21.0127 30.71 21.0127H39.8188V30.0898H30.71V41.4839C30.71 42.2668 30.6359 42.9862 30.4878 43.6421C30.3397 44.298 30.1387 44.901 29.8848 45.4512C29.6309 45.9801 29.3452 46.4668 29.0278 46.9111C28.7104 47.3343 28.3825 47.7046 28.0439 48.022C27.2611 48.8049 26.3724 49.4185 25.3779 49.8628C26.3724 50.286 27.2611 50.9102 28.0439 51.7354C28.3825 52.0951 28.7104 52.5076 29.0278 52.9731C29.3452 53.4386 29.6309 53.9782 29.8848 54.5918C30.1387 55.1842 30.3397 55.8613 30.4878 56.623C30.6359 57.3636 30.71 58.1888 30.71 59.0986V70.3975H39.8188V79.5063H30.71C29.5251 79.5063 28.3719 79.2736 27.2505 78.8081C26.1502 78.3426 25.1769 77.6973 24.3306 76.8721C23.4842 76.068 22.8071 75.1053 22.2993 73.9839C21.7915 72.8836 21.5376 71.6882 21.5376 70.3975V59.0986C21.5588 57.9349 21.3789 57.0356 20.998 56.4009C20.6383 55.7661 20.2257 55.3006 19.7603 55.0044C19.2101 54.6659 18.5859 54.4648 17.8877 54.4014H13.0952V45.3242Z" fill="black"/>
<path d="M82.3799 73H62.5752V64.3672H82.3799C82.9723 64.3672 83.4801 64.1556 83.9033 63.7324C84.3265 63.3092 84.5381 62.8014 84.5381 62.209C84.5381 61.5954 84.3265 61.1934 83.9033 61.0029C83.4801 60.8125 82.9723 60.7173 82.3799 60.7173H73.3662C71.8639 60.7173 70.4569 60.4316 69.145 59.8604C67.8332 59.2891 66.6906 58.5168 65.7173 57.5435C64.744 56.549 63.9717 55.3958 63.4004 54.084C62.8503 52.7721 62.5752 51.3651 62.5752 49.8628C62.5752 48.3605 62.8503 46.9535 63.4004 45.6416C63.9717 44.3298 64.744 43.1872 65.7173 42.2139C66.6906 41.2406 67.8332 40.4788 69.145 39.9287C70.4569 39.3574 71.8639 39.0718 73.3662 39.0718H90.9175V47.7046H73.3662C72.7738 47.7046 72.266 47.9162 71.8428 48.3394C71.4196 48.7625 71.208 49.2703 71.208 49.8628C71.208 50.4764 71.4196 51.0054 71.8428 51.4497C72.266 51.8729 72.7738 52.0845 73.3662 52.0845H82.3799C83.861 52.0845 85.2575 52.3384 86.5693 52.8462C87.8812 53.3328 89.0238 54.0205 89.9971 54.9092C90.9704 55.7979 91.7427 56.8664 92.314 58.1147C92.8853 59.3631 93.1709 60.7279 93.1709 62.209C93.1709 63.7113 92.8853 65.1183 92.314 66.4302C91.7427 67.7209 90.9704 68.8634 89.9971 69.8579C89.0238 70.8312 87.8812 71.6035 86.5693 72.1748C85.2575 72.7249 83.861 73 82.3799 73ZM114.848 73C112.753 73 110.786 72.6086 108.945 71.8257C107.104 71.0216 105.485 69.932 104.089 68.5566C102.714 67.1602 101.624 65.5415 100.82 63.7007C100.037 61.8599 99.6455 59.8921 99.6455 57.7974V47.7046H95.4243V39.0718H99.6455V25.4878H108.278V39.0718H121.418V47.7046H108.278V57.7974C108.278 58.7072 108.448 59.5641 108.786 60.3682C109.125 61.151 109.59 61.8387 110.183 62.4312C110.775 63.0236 111.473 63.4997 112.277 63.8594C113.081 64.1979 113.938 64.3672 114.848 64.3672H121.418V73H114.848ZM134.494 85.9492V77.2212L139.318 77.2847C140.165 77.2847 140.979 77.1471 141.762 76.8721C142.545 76.597 143.264 76.2161 143.92 75.7295C144.597 75.2428 145.19 74.661 145.698 73.9839C146.206 73.328 146.618 72.6086 146.936 71.8257C145.983 72.2277 145.01 72.6297 144.016 73.0317C143.042 73.4338 142.058 73.6348 141.064 73.6348C138.969 73.6348 137.001 73.2645 135.161 72.5239C133.32 71.7834 131.701 70.736 130.305 69.3818C128.929 68.0065 127.84 66.3455 127.036 64.3989C126.253 62.4312 125.861 60.2306 125.861 57.7974V39.0083H134.494V57.7974C134.494 59.0034 134.663 60.0614 135.002 60.9712C135.362 61.8599 135.838 62.611 136.43 63.2246C137.023 63.8171 137.71 64.2614 138.493 64.5576C139.297 64.8538 140.154 65.002 141.064 65.002C141.953 65.002 142.788 64.8009 143.571 64.3989C144.375 63.9757 145.074 63.4256 145.666 62.7485C146.258 62.0715 146.724 61.3097 147.062 60.4634C147.401 59.5959 147.57 58.7072 147.57 57.7974V39.0083H156.298V68.7153C156.277 71.1063 155.812 73.3491 154.902 75.4438C153.992 77.5386 152.744 79.3688 151.157 80.9346C149.591 82.5003 147.761 83.7381 145.666 84.6479C143.571 85.5578 141.328 86.0127 138.938 86.0127L134.494 85.9492ZM171.66 73H162.932V25.4878H171.66V73ZM191.813 64.6846C192.152 64.7904 192.491 64.8644 192.829 64.9067C193.168 64.9279 193.506 64.9385 193.845 64.9385C194.691 64.9385 195.506 64.8221 196.289 64.5894C197.071 64.3566 197.801 64.0286 198.479 63.6055C199.177 63.1611 199.79 62.6322 200.319 62.0186C200.869 61.3838 201.314 60.6855 201.652 59.9238L208 66.3032C207.196 67.4458 206.265 68.472 205.207 69.3818C204.17 70.2917 203.038 71.064 201.811 71.6987C200.605 72.3335 199.325 72.8096 197.971 73.127C196.638 73.4655 195.262 73.6348 193.845 73.6348C191.454 73.6348 189.2 73.1904 187.084 72.3018C184.99 71.4131 183.149 70.1753 181.562 68.5884C179.996 67.0015 178.758 65.1183 177.849 62.939C176.939 60.7384 176.484 58.3263 176.484 55.7026C176.484 53.0155 176.939 50.561 177.849 48.3394C178.758 46.1177 179.996 44.224 181.562 42.6582C183.149 41.0924 184.99 39.8758 187.084 39.0083C189.2 38.1408 191.454 37.707 193.845 37.707C195.262 37.707 196.648 37.8763 198.002 38.2148C199.357 38.5534 200.637 39.04 201.843 39.6748C203.07 40.3096 204.213 41.0924 205.271 42.0234C206.328 42.9333 207.259 43.9595 208.063 45.1021L191.813 64.6846ZM196.257 46.8159C195.855 46.6678 195.453 46.5726 195.051 46.5303C194.67 46.488 194.268 46.4668 193.845 46.4668C192.66 46.4668 191.538 46.689 190.48 47.1333C189.444 47.5565 188.534 48.1701 187.751 48.9741C186.989 49.7782 186.386 50.7515 185.942 51.894C185.498 53.0155 185.275 54.285 185.275 55.7026C185.275 56.02 185.286 56.3797 185.307 56.7817C185.349 57.1838 185.402 57.5964 185.466 58.0195C185.55 58.4215 185.646 58.813 185.751 59.1938C185.857 59.5747 185.995 59.9132 186.164 60.2095L196.257 46.8159Z" fill="#1565C0"/>
</g>
<rect x="6" y="93" width="209" height="98" rx="5" fill="#1565C0"/>
<g filter="url(#filter1_d)">
<path d="M117.434 156.104C117.434 158.711 116.936 161.157 115.939 163.442C114.943 165.728 113.581 167.734 111.853 169.463C110.153 171.162 108.161 172.51 105.876 173.506C103.591 174.502 101.145 175 98.5371 175H73.3125V162.388H98.5371C99.416 162.388 100.236 162.227 100.998 161.904C101.76 161.582 102.419 161.143 102.976 160.586C103.562 160 104.016 159.326 104.338 158.564C104.66 157.803 104.821 156.982 104.821 156.104C104.821 155.225 104.66 154.404 104.338 153.643C104.016 152.881 103.562 152.222 102.976 151.665C102.419 151.079 101.76 150.625 100.998 150.303C100.236 149.98 99.416 149.819 98.5371 149.819H81.3545V137.207H98.5371C99.416 137.207 100.236 137.046 100.998 136.724C101.76 136.401 102.419 135.962 102.976 135.405C103.562 134.819 104.016 134.146 104.338 133.384C104.66 132.593 104.821 131.758 104.821 130.879C104.821 130 104.66 129.18 104.338 128.418C104.016 127.656 103.562 126.997 102.976 126.44C102.419 125.854 101.76 125.4 100.998 125.078C100.236 124.756 99.416 124.595 98.5371 124.595H73.3125V111.982H98.5371C101.145 111.982 103.591 112.48 105.876 113.477C108.161 114.473 110.153 115.835 111.853 117.563C113.581 119.263 114.943 121.255 115.939 123.54C116.936 125.825 117.434 128.271 117.434 130.879C117.434 133.193 117.009 135.449 116.159 137.646C115.31 139.814 114.108 141.763 112.556 143.491C114.108 145.22 115.31 147.183 116.159 149.38C117.009 151.548 117.434 153.789 117.434 156.104Z" fill="white"/>
<path d="M195.72 156.401H190.896C190.197 156.465 189.573 156.666 189.023 157.004C188.79 157.153 188.557 157.343 188.325 157.576C188.113 157.787 187.923 158.062 187.753 158.401C187.584 158.718 187.447 159.099 187.341 159.543C187.256 159.988 187.224 160.506 187.246 161.099V172.397C187.246 173.688 186.992 174.884 186.484 175.984C185.976 177.105 185.299 178.068 184.453 178.872C183.606 179.697 182.622 180.343 181.501 180.808C180.401 181.274 179.258 181.506 178.073 181.506H168.996V172.397H178.073V161.099C178.073 160.189 178.147 159.364 178.295 158.623C178.444 157.861 178.645 157.184 178.898 156.592C179.152 155.978 179.438 155.439 179.755 154.973C180.073 154.508 180.401 154.095 180.739 153.735C181.522 152.91 182.411 152.286 183.405 151.863C182.411 151.418 181.522 150.805 180.739 150.022C180.401 149.705 180.073 149.334 179.755 148.911C179.438 148.467 179.152 147.98 178.898 147.451C178.645 146.901 178.444 146.298 178.295 145.642C178.147 144.986 178.073 144.267 178.073 143.484V132.09H168.996V123.013H178.073C179.322 123.013 180.496 123.245 181.596 123.711C182.718 124.155 183.691 124.79 184.516 125.615C185.362 126.419 186.029 127.382 186.516 128.503C187.002 129.604 187.246 130.799 187.246 132.09V143.293C187.288 144.055 187.436 144.732 187.69 145.325C187.923 145.833 188.282 146.298 188.769 146.721C189.256 147.123 189.965 147.324 190.896 147.324H195.72V156.401Z" fill="black"/>
</g>
<rect x="6.5" y="0.5" width="208" height="190" rx="15.5" stroke="#1565C0"/>
</g>
<defs>
<filter id="filter0_d" x="9.09521" y="21.0127" width="202.968" height="73" filterUnits="userSpaceOnUse" color-interpolation-filters="sRGB">
<feFlood flood-opacity="0" result="BackgroundImageFix"/>
<feColorMatrix in="SourceAlpha" type="matrix" values="0 0 0 0 0 0 0 0 0 0 0 0 0 0 0 0 0 0 127 0"/>
<feOffset dy="4"/>
<feGaussianBlur stdDeviation="2"/>
<feColorMatrix type="matrix" values="0 0 0 0 0 0 0 0 0 0 0 0 0 0 0 0 0 0 0.25 0"/>
<feBlend mode="normal" in2="BackgroundImageFix" result="effect1_dropShadow"/>
<feBlend mode="normal" in="SourceGraphic" in2="effect1_dropShadow" result="shape"/>
</filter>
<filter id="filter1_d" x="69.3125" y="111.982" width="130.407" height="77.5239" filterUnits="userSpaceOnUse" color-interpolation-filters="sRGB">
<feFlood flood-opacity="0" result="BackgroundImageFix"/>
<feColorMatrix in="SourceAlpha" type="matrix" values="0 0 0 0 0 0 0 0 0 0 0 0 0 0 0 0 0 0 127 0"/>
<feOffset dy="4"/>
<feGaussianBlur stdDeviation="2"/>
<feColorMatrix type="matrix" values="0 0 0 0 0 0 0 0 0 0 0 0 0 0 0 0 0 0 0.25 0"/>
<feBlend mode="normal" in2="BackgroundImageFix" result="effect1_dropShadow"/>
<feBlend mode="normal" in="SourceGraphic" in2="effect1_dropShadow" result="shape"/>
</filter>
</defs>
</svg>
