<svg width="70" height="17" viewBox="0 0 70 17" fill="none" xmlns="http://www.w3.org/2000/svg">
<path d="M11.0671 15.5135V11.799H11.8848L12.0717 13.7026C12.0842 13.8397 12.1006 13.9323 12.1209 13.9803C12.1411 14.0283 12.1793 14.0763 12.2353 14.1243C12.5655 14.3303 12.8818 14.4331 13.1839 14.4331C13.1933 14.4331 13.2026 14.4331 13.212 14.4331C14.1622 14.4331 14.6373 13.6406 14.6373 12.056C14.6373 11.6516 14.6022 11.3 14.5321 11.0015C14.462 10.7033 14.3522 10.4561 14.2027 10.2607C14.0532 10.0654 13.913 9.91081 13.782 9.79779C13.6512 9.68444 13.4705 9.55917 13.24 9.42199C12.6139 9.01759 12.187 8.6503 11.9596 8.32113C11.4674 7.60764 11.2213 6.50678 11.2213 5.0182C11.2213 3.54357 11.4495 2.43046 11.9058 1.67953C12.3624 0.92826 12.958 0.552795 13.6933 0.552795C14.3258 0.552795 14.9411 0.81014 15.5392 1.32449V5.12134L14.7167 4.95659L14.5811 3.2076C14.5624 2.99484 14.5314 2.86107 14.4878 2.80626C14.3163 2.57989 14.0345 2.46654 13.642 2.46654C13.2151 2.46654 12.8903 2.66023 12.6675 3.04795C12.4449 3.43567 12.3334 3.97214 12.3334 4.65805C12.3334 4.9668 12.3624 5.24797 12.4199 5.50191C12.4775 5.75585 12.5414 5.95975 12.6116 6.1143C12.6816 6.2685 12.7898 6.4227 12.9362 6.57724C13.0826 6.73145 13.2065 6.8465 13.3077 6.92173C13.409 6.9973 13.5562 7.1001 13.7494 7.23048C14.0048 7.40204 14.1981 7.53922 14.3288 7.64202C14.4596 7.74482 14.6319 7.9232 14.8452 8.17714C15.0585 8.43108 15.2198 8.69829 15.3288 8.97981C15.4379 9.26098 15.5352 9.63985 15.621 10.1168C15.7066 10.5933 15.7494 11.1335 15.7494 11.7371C15.7494 13.308 15.5087 14.4674 15.0275 15.215C14.5461 15.9628 13.9223 16.3366 13.1559 16.3366C12.7541 16.3366 12.3529 16.2491 11.9527 16.0741C11.5523 15.8992 11.2571 15.7123 11.0671 15.5135V15.5135Z" fill="#141414"/>
<path d="M16.2195 6.55204L16.3084 5.18362H17.9626V12.2214C17.9626 12.9829 18.0062 13.5351 18.0934 13.8782C18.1807 14.221 18.3505 14.3925 18.6028 14.3925C19.0545 14.3925 19.4984 13.902 19.9346 12.9213V7.27233C19.9346 7.10077 19.9267 6.98776 19.9111 6.93295C19.8957 6.87781 19.8521 6.83662 19.7803 6.80938L19.3224 6.55204L19.4065 5.18362H21.0374V14.1662C21.0374 14.4201 21.0779 14.5607 21.1589 14.5879L21.6589 14.7319V16.0799H20.1449L20.0608 14.7939L20.0326 14.7731C19.4408 15.8157 18.8442 16.3372 18.243 16.3372C17.7383 16.3372 17.3824 16.0523 17.1752 15.4832C16.968 14.9137 16.8645 14.0014 16.8645 12.7463V7.27233C16.8645 7.10077 16.8558 6.98776 16.8386 6.93295C16.8216 6.87781 16.7788 6.83662 16.7102 6.80938L16.2195 6.55204V6.55204Z" fill="#141414"/>
<path d="M21.6797 1.52496L21.7732 0.177307H23.4415V6.11392C23.9835 5.35959 24.5053 4.98208 25.0069 4.98208C25.01 4.98208 25.0147 4.98208 25.0209 4.98208C25.5816 4.98208 26.0264 5.41439 26.355 6.27867C26.6837 7.14295 26.8481 8.48073 26.8481 10.2913C26.8481 12.3698 26.6673 13.8979 26.306 14.8752C25.9446 15.8528 25.4462 16.3416 24.8106 16.3416C24.2374 16.3416 23.7607 15.9267 23.3807 15.0964H23.3433L23.2872 16.0843H22.2265C22.3075 15.076 22.348 14.0984 22.348 13.1517C22.348 13.1177 22.348 13.0833 22.348 13.0489V2.36881C22.348 2.12883 22.3075 1.9811 22.2265 1.92629L21.6797 1.52496V1.52496ZM23.4508 13.1725C23.8402 13.9752 24.2358 14.3762 24.6378 14.3762C25.3511 14.3762 25.7079 13.0629 25.7079 10.4357C25.7079 9.31063 25.6198 8.44976 25.4438 7.85303C25.2678 7.25631 25.0209 6.95777 24.7032 6.95777C24.3137 6.95777 23.8963 7.3043 23.4508 7.99702V13.1725Z" fill="#141414"/>
<path d="M27.2854 16.0843V14.7571L27.8322 14.5923C27.8945 14.5787 27.9358 14.5426 27.956 14.4844C27.9763 14.4262 27.9863 14.3214 27.9863 14.1706V2.36882C27.9863 2.12883 27.9443 1.9811 27.8602 1.92629L27.3134 1.52496L27.4116 0.177307H29.0845V14.1706C29.0845 14.3421 29.0931 14.4517 29.1103 14.4997C29.1273 14.5477 29.1701 14.5787 29.2387 14.5923L29.7761 14.7363V16.0843H27.2854V16.0843Z" fill="#141414"/>
<path d="M30.3174 16.082V14.7547L30.8922 14.59C30.9545 14.5764 30.9958 14.5403 31.016 14.4821C31.0363 14.4239 31.0465 14.319 31.0465 14.1682V7.3772C31.0465 7.13722 31.0043 6.98983 30.9202 6.93502L30.3922 6.53369L30.4904 5.18569H32.1446V14.1682C32.1446 14.3398 32.1531 14.4494 32.1702 14.4974C32.1874 14.5454 32.2302 14.5764 32.2987 14.59L32.8642 14.734V16.082H30.3174V16.082ZM30.7566 1.54338C30.7566 1.04946 30.8189 0.668891 30.9437 0.401335C31.0683 0.133778 31.2457 0 31.4763 0C31.7006 0 31.8767 0.133778 32.0044 0.401335C32.1321 0.668891 32.1959 1.04946 32.1959 1.54338C32.1959 2.05093 32.1321 2.44035 32.0044 2.71131C31.8767 2.98193 31.7006 3.11741 31.4763 3.11741C31.2457 3.11741 31.0683 2.98193 30.9437 2.71131C30.8189 2.44035 30.7566 2.05093 30.7566 1.54338V1.54338Z" fill="#141414"/>
<path d="M33.3486 6.52898L33.4466 5.18098H34.8626L34.9374 6.36422L34.9795 6.38498C35.5402 5.44513 36.0853 4.97504 36.615 4.97504C37.157 4.97504 37.5372 5.39714 37.7551 6.24065C38.3471 5.39714 38.9016 4.97504 39.4188 4.97504C39.9235 4.97504 40.284 5.28378 40.5006 5.90127C40.7171 6.51842 40.8253 7.41028 40.8253 8.5765V14.1635C40.8253 14.3351 40.8332 14.4447 40.8488 14.4927C40.8643 14.5407 40.9079 14.5717 40.9796 14.5853L41.5029 14.7293V16.0773H39.0729V14.75L39.5731 14.6061C39.6759 14.5785 39.7256 14.4379 39.7225 14.184V9.22463C39.7225 8.51114 39.6828 7.96411 39.6034 7.58354C39.5239 7.20297 39.3626 7.01235 39.1198 7.01235C38.7303 7.01235 38.3394 7.29386 37.9468 7.85621C37.9717 8.17857 37.9842 8.57309 37.9842 9.03945V14.1635C37.9842 14.3351 37.992 14.4447 38.0076 14.4927C38.0231 14.5407 38.0651 14.5717 38.1337 14.5853L38.5776 14.7293V16.0773H36.2225V14.75L36.7272 14.6061C36.7895 14.5921 36.8308 14.5529 36.851 14.4876C36.8713 14.4226 36.8813 14.3211 36.8813 14.184V9.33798C36.8813 8.96047 36.8767 8.65888 36.8673 8.43251C36.858 8.20614 36.8362 7.96922 36.8019 7.72243C36.7677 7.47564 36.707 7.29216 36.6196 7.172C36.5324 7.05183 36.4219 6.99192 36.2878 6.99192C35.9109 6.99192 35.5153 7.35207 35.101 8.07236V14.1635C35.101 14.3351 35.1095 14.4447 35.1267 14.4927C35.1438 14.5407 35.1866 14.5717 35.2551 14.5853L35.7225 14.7293V16.0773H33.3907V14.75L33.8486 14.5853C33.9109 14.5717 33.9522 14.5356 33.9724 14.4774C33.9927 14.4192 34.0027 14.3143 34.0027 14.1635V7.37249C34.0027 7.13251 33.9607 6.98512 33.8766 6.93031L33.3486 6.52898V6.52898Z" fill="#141414"/>
<path d="M41.8381 10.5726C41.8381 8.74806 42.0484 7.35887 42.4689 6.40541C42.8896 5.45194 43.4316 4.97504 44.0951 4.97504C45.4472 4.97504 46.1233 6.66616 46.1233 10.0477C46.1233 10.4661 46.1138 10.8742 46.0951 11.2721H43.0064C43.0313 12.3012 43.1457 13.078 43.3498 13.6029C43.5539 14.1274 43.8787 14.3899 44.3241 14.3899C44.726 14.3899 45.1949 14.1428 45.7308 13.6492L46.0392 15.3365C45.4534 15.9949 44.8414 16.3278 44.2027 16.3346C42.6263 16.3278 41.8381 14.4069 41.8381 10.5726V10.5726ZM43.0157 9.52315H45.025C45.025 7.71221 44.7089 6.80674 44.0764 6.80674C43.7836 6.80674 43.5398 7.03141 43.3452 7.48074C43.1505 7.93007 43.0406 8.61087 43.0157 9.52315Z" fill="#141414"/>
<path d="M50.0203 4.70283V0.823944H55.9268V4.70283H55.1325L54.9782 2.87146C54.9659 2.71386 54.9144 2.63488 54.8241 2.63488H53.5343V14.1483C53.5343 14.3063 53.5422 14.4074 53.5576 14.452C53.5732 14.4965 53.6168 14.5258 53.6886 14.5394L54.74 14.7144V16.0828H51.2725V14.7144L52.2585 14.5704C52.3208 14.5565 52.3621 14.5241 52.3824 14.4727C52.4026 14.421 52.4128 14.3131 52.4128 14.1483V2.63488H51.1324C51.042 2.63488 50.9907 2.71386 50.9782 2.87146L50.824 4.70283H50.0203V4.70283Z" fill="#141414"/>
<path d="M55.7803 10.583C55.7803 8.75843 55.9905 7.36925 56.4112 6.41578C56.8317 5.46232 57.3739 4.98541 58.0374 4.98541C59.3894 4.98541 60.0654 6.67653 60.0654 10.0581C60.0654 10.4764 60.0561 10.8846 60.0374 11.2825H56.9486C56.9735 12.3116 57.088 13.0884 57.2921 13.6133C57.496 14.1378 57.8208 14.4003 58.2664 14.4003C58.6682 14.4003 59.137 14.1531 59.6729 13.6595L59.9813 15.3469C59.3957 16.0053 58.7835 16.3382 58.1448 16.345C56.5684 16.3382 55.7803 14.4173 55.7803 10.583V10.583ZM56.9578 9.53353H58.9673C58.9673 7.72259 58.651 6.81712 58.0187 6.81712C57.7259 6.81712 57.4821 7.04178 57.2873 7.49111C57.0926 7.94045 56.9829 8.62125 56.9578 9.53353Z" fill="#141414"/>
<path d="M60.6321 16.0799V14.7526L61.0713 14.5674C61.1803 14.5263 61.2754 14.3993 61.3564 14.1865L62.6694 10.7294L61.3564 7.14873C61.2846 6.96355 61.2084 6.84373 61.1274 6.78859L60.7255 6.55201L60.8236 5.18359H63.0339V6.55201L62.4965 6.72697L63.3844 9.22722L64.3517 6.72697L63.7676 6.55201L63.8658 5.18359H65.8284V6.55201L65.4078 6.76816C65.3175 6.83658 65.2303 6.97036 65.1462 7.1695L63.9125 10.3693L65.291 14.1661C65.3813 14.3925 65.467 14.516 65.548 14.5365L66.0292 14.7319V16.0799H63.5759V14.7319L64.1135 14.5365L63.1834 11.8613L62.1975 14.5365L62.7816 14.7319V16.0799H60.6321V16.0799Z" fill="#141414"/>
<path d="M66.3926 6.63815V5.14616C66.7508 5.05016 67.0187 4.74142 67.1963 4.22026C67.3738 3.69876 67.4953 3.21981 67.5607 2.23196H68.257V4.97902C68.257 5.11654 68.2835 5.18496 68.3365 5.18496H69.7243V6.91353H68.257V12.6446C68.257 13.3032 68.307 13.7662 68.4065 14.0338C68.5062 14.3013 68.687 14.4351 68.9487 14.4351C69.1917 14.4351 69.4689 14.3149 69.7804 14.0749L70.0001 15.5976C69.5141 16.0915 69.0421 16.3386 68.5842 16.3386C68.0857 16.3386 67.7235 16.0915 67.4976 15.5976C67.2718 15.104 67.1589 14.3323 67.1589 13.2825V7.12969C67.1589 6.99251 67.126 6.95302 67.0804 6.89039C66.9239 6.67457 66.3926 6.63815 66.3926 6.63815V6.63815Z" fill="#141414"/>
<path fill-rule="evenodd" clip-rule="evenodd" d="M6.99903 9.08841C6.99903 8.90187 6.92028 8.79431 6.82364 8.84775L0.175389 12.5384C0.0785556 12.5922 0 12.7872 0 12.9734V16.7454C0 16.932 0.0785556 17.0399 0.175389 16.9861L6.82364 13.2958C6.92028 13.242 6.99903 13.047 6.99903 12.8604V9.08841V9.08841Z" fill="url(#paint0_linear)"/>
<path fill-rule="evenodd" clip-rule="evenodd" d="M0 8.9699C0 9.15644 0.0785556 9.35149 0.175389 9.40527L6.82461 13.0963C6.92144 13.15 7 13.0421 7 12.8559V9.08359C7 8.89739 6.92144 8.70234 6.82461 8.64856L0.175389 4.95758C0.0785556 4.9038 0 5.01136 0 5.1979V8.9699H0Z" fill="#FF9800"/>
<path fill-rule="evenodd" clip-rule="evenodd" d="M6.99903 1.33918C6.99903 1.15264 6.92028 1.04473 6.82364 1.09851L0.175389 4.78882C0.0785556 4.8426 0 5.03765 0 5.22419V8.99619C0 9.18273 0.0785556 9.2903 0.175389 9.23685L6.82364 5.54621C6.92028 5.49243 6.99903 5.29738 6.99903 5.11118V1.33918V1.33918Z" fill="#FF9800"/>
<defs>
<linearGradient id="paint0_linear" x1="3.85766" y1="14.5127" x2="5.72091" y2="11.9088" gradientUnits="userSpaceOnUse">
<stop stop-color="#FF9700"/>
<stop offset="0.53" stop-color="#F48E00"/>
<stop offset="1" stop-color="#D06F00"/>
</linearGradient>
</defs>
</svg>
